<?xml version="1.0" encoding="UTF-8"?><svg id="Layer_2" xmlns="http://www.w3.org/2000/svg" viewBox="0 0 164.19 90.06"><defs><style>.cls-1{fill:#f3e000;}.cls-2{fill:#f2e000;}.cls-3{fill:#080808;}</style></defs><g id="Layer_1-2"><g><path class="cls-3" d="M98.77,.09c.4-.02,.8-.06,1.19-.06,15.85,0,31.7,0,47.55,0,2.37,0,4.71,.23,6.94,1.05,5.84,2.15,8.53,6.7,9.48,12.55,.24,1.46,.24,2.93,.24,4.41,0,11.08,0,22.16,0,33.25,0,2.49-.31,4.94-1.25,7.25-2.17,5.39-6.45,8.08-11.94,9.18-.55,.11-1.1,.23-1.66,.23-8.7,.01-17.4,0-26.11,0-.43-.45-.4-1.02-.4-1.57,0-4.49-.01-8.98,0-13.46,0-.51-.02-1.04,.31-1.49,.63-.47,1.38-.34,2.08-.35,6.75-.01,13.49,0,20.24,0,1.77,0,1.81-.04,1.81-1.81,0-9.96,0-19.93,0-29.89,0-1.66-.07-1.73-1.77-1.74-14.85,0-29.7,0-44.55,0-.75,0-1.53,.14-2.22-.31-.4-.51-.34-1.13-.35-1.72,0-4.61-.01-9.22,0-13.84,0-.58-.09-1.21,.4-1.69Z"/><path class="cls-1" d="M41.29,72.8c-2.92-1.28-5.69-2.86-8.52-4.32-10.52-5.43-21.02-10.9-31.54-16.31C.33,51.71,0,51.21,0,50.18c.05-10.52,.03-21.05,.03-31.57,0-.4,.02-.8,.04-1.19,.6,.15,.73,.7,.95,1.15,4.13,8.39,8.26,16.78,12.29,25.22,.87,1.83,1.81,3.63,2.71,5.45,.21,.43,.47,.83,.52,1.32-.1-2.26-.06-4.52-.04-6.78,0-.28,.05-.56,.3-.75,7.69,3.99,15.38,7.98,23.08,11.97,.49,.26,1.01,.47,1.51,.71,.28,.43,.23,.92,.23,1.39,0,4.7,0,9.41,0,14.11,0,.56,.02,1.12-.33,1.61Z"/><path class="cls-3" d="M16.8,43.01v7.99c-.56-.22-.6-.69-.78-1.04C10.93,39.53,5.84,29.09,.75,18.66c-.21-.42-.45-.83-.68-1.24C.05,11.84,.05,6.27,.02,.7,.01,.18,.15,.01,.68,.02c5.14,.02,10.29,.02,15.43,0,.56,0,.69,.23,.65,.71-.02,.28,0,.56,0,.84,0,13.34,0,26.68,0,40.02,0,.48,.02,.95,.04,1.43Z"/><path class="cls-1" d="M49.63,51.35c5.06-2.66,10.12-5.33,15.18-8,.41-.22,.91-.34,1.12-.83,.52-2.19,1.73-4.09,2.68-6.08,2.89-6.03,5.73-12.09,8.64-18.11,1.39-2.87,2.75-5.74,4.12-8.62,.17-.35,.23-1.14,1.02-.64,.27,.65,.22,1.33,.22,2.01,0,12.75,0,25.5,0,38.24,0,.32-.02,.64-.01,.96,.03,.92-.37,1.43-1.33,1.44-.47,.14-.94,.14-1.42,.14-9.46,0-18.91,0-28.37-.01-.64,0-1.38,.18-1.86-.5Z"/><path class="cls-3" d="M81.26,51.46c.8,.04,1.02-.29,1.02-1.11-.03-13.46-.02-26.93-.03-40.39,0-.35,.23-.81-.26-1.05-.17-.27-.13-.46,.19-.56,.52,.17,.67,.66,.88,1.08,3.22,6.55,6.29,13.16,9.45,19.74,1.93,4.03,3.84,8.06,5.78,12.08,.28,.57,.62,1.12,.76,1.75,.07,2.77,.27,5.53-.11,8.3-.47,.67-1.19,.55-1.85,.56-4.26,.02-8.51,.01-12.77,0-.43,0-.88-.12-1.24,.24-.31,.55-.24,1.16-.24,1.75,0,4.09,0,8.19-.01,12.28,0,.62,.11,1.29-.37,1.82-.45-.28-.2-.71-.2-1.06-.02-4.73-.03-9.45,0-14.18,0-.86-.14-1.19-.98-.7-.15-.17-.16-.35-.02-.53Z"/><path class="cls-3" d="M81.26,51.46c0,.18,.01,.35,.02,.53-4.91,2.59-9.81,5.19-14.73,7.77-8.02,4.2-16.05,8.37-24.07,12.55-.38,.2-.73,.5-1.2,.49,.03-5.7,.07-11.41,.1-17.11,2.75-1.44,5.49-2.89,8.24-4.34,6.17,.02,12.34,.03,18.51,.05,4.38,.01,8.75,.04,13.13,.06Z"/><path class="cls-1" d="M98.74,42.71c-2.23-4.6-4.46-9.21-6.68-13.81-3.29-6.83-6.56-13.66-9.84-20.5-.36-.33-.37-.78-.37-1.21-.03-1.94-.02-3.88,0-5.82,0-.47,.02-.96,.43-1.3,5.5,0,10.99,0,16.49,.01,0,5.24,0,10.48,.02,15.73,0,.47,.05,.95,.07,1.42,.32,.5,.29,1.06,.29,1.62,0,7.35,0,14.7,0,22.05,0,.62,.11,1.29-.4,1.8Z"/><path class="cls-3" d="M82.28,.07c-.02,2.78-.04,5.55-.06,8.33-.2,.11-.23,.29-.23,.5-2.03,4.31-4.04,8.63-6.08,12.93-3.08,6.5-6.19,12.98-9.29,19.47-.2,.42-.29,.91-.69,1.22-.01-2.35-.04-4.7-.04-7.06,0-11.45,0-22.89-.02-34.34,0-.85,.13-1.14,1.08-1.13,5.11,.07,10.22,.06,15.33,.07Z"/><path class="cls-1" d="M82.74,51.69c.29-.51,.79-.26,1.18-.26,4.54-.02,9.09,0,13.63-.02,.43,0,.88,.14,1.28-.14,.4-.24,.85-.18,1.28-.18,7.09,0,14.19,0,21.28,0,.63,0,1.29-.11,1.84,.34,0,5.51,0,11.02-.01,16.53-3.27,0-6.55,0-9.82,0-.82-.2-1.54-.61-2.28-.99-5.95-3.07-11.82-6.28-17.75-9.39-3.32-1.74-6.65-3.45-9.91-5.29-.28-.16-.58-.28-.72-.6Z"/><path class="cls-3" d="M82.74,51.69c4.12,2.16,8.25,4.31,12.37,6.48,5.77,3.05,11.54,6.11,17.31,9.17,.34,.18,.66,.42,.98,.63-9.96,.01-19.91,.03-29.87,.04-.36,0-.71-.04-1.07-.06,0-4.97,0-9.94,0-14.91,0-.45-.19-.97,.27-1.34Z"/><path class="cls-3" d="M80.9,89.99c-1.88,0-3.75,.01-5.63,0-2.47-.02-3.76-1.1-3.96-3.51-.18-2.18-.21-4.38,.02-6.56,.23-2.16,1.47-3.28,3.66-3.3,3.99-.05,7.98,0,11.98-.03,.68,0,.76,.25,.77,.82,.04,2.31,.06,2.31-2.26,2.31-3.19,0-6.39,0-9.58,0-1.41,0-1.54,.14-1.55,1.59,0,1.43,.01,2.87,0,4.3-.01,.89,.32,1.31,1.27,1.3,2.71-.03,5.43-.05,8.14,0,.79,.02,.89-.27,.9-.95,0-.73-.13-1.03-.96-1.01-2.11,.07-4.23,0-6.35,.04-.69,.01-.96-.11-.95-.89,.02-2.23-.02-2.23,2.23-2.23,2.75,0,5.51,.02,8.26-.02,.68,0,.87,.18,.86,.85-.04,2.15-.04,4.3,0,6.46,.01,.68-.18,.87-.86,.86-1.99-.04-3.99-.02-5.99-.02Z"/><path d="M58,81.84c0,1.47,.05,2.95-.01,4.42-.11,2.43-1.45,3.74-3.89,3.71-1.89-.02-3.83,.35-5.67-.46-.13-.06-.32-.04-.46,.02-1.92,.81-3.94,.43-5.92,.43-2.08,0-3.32-1.13-3.52-3.16-.31-3.22-.06-6.45-.13-9.67,0-.43,.19-.56,.58-.53,.04,0,.08,0,.12,0q2.42-.17,2.42,2.25c0,2.23,.02,4.46,0,6.69-.01,.94,.32,1.42,1.33,1.36,.84-.05,1.68-.06,2.51,0,1.02,.07,1.33-.41,1.32-1.35-.03-2.63,.02-5.26-.03-7.89-.01-.78,.11-1.1,1.01-1.08,2.13,.05,2.13,0,2.13,2.11,0,2.31,.02,4.62,0,6.93-.01,.9,.33,1.33,1.27,1.28,.84-.05,1.68-.05,2.51,0,.98,.06,1.36-.33,1.35-1.31-.04-2.67,.01-5.34-.03-8.01-.01-.75,.14-1.01,.96-1,2.17,.04,2.17,0,2.17,2.16v3.11s-.01,0-.02,0Z"/><path class="cls-3" d="M102.77,85c1.6,1.63,3.15,3.21,4.9,4.99-1.53,0-2.82,0-4.11,0-.27,0-.44-.15-.61-.33-2.52-2.59-5.04-5.18-7.6-7.81,2.49,0,5.06,0,7.63,0,.73,0,1.27-.16,1.3-1.01,.03-.71-.23-1.15-1.02-1.15-2.87,0-5.75,.02-8.62-.01-.7,0-.64,.38-.64,.84,0,2.83-.02,5.66,.02,8.48,.01,.75-.14,1.02-.96,1-2.17-.04-2.17,0-2.17-2.18,0-3.43,.03-6.85-.02-10.28-.01-.8,.23-.99,1-.98,3.75,.04,7.5,.02,11.25,.02,2.87,0,4.24,1.32,4.26,4.09,.02,2.89-1.28,4.21-4.21,4.28-.12,0-.24,.02-.41,.03Z"/><path d="M35.73,84.84c0,1.47-.02,2.95,.01,4.42,.01,.56-.14,.73-.72,.74-2.39,.08-2.39,.1-2.39-2.31q0-1.77-1.82-1.77c-1.84,0-3.67-.02-5.51,.01-.62,.01-.89-.09-.9-.82-.01-2.31-.05-2.31,2.27-2.31,1.6,0,3.2-.08,4.79,.03,1.06,.07,1.34-.31,1.18-1.25-.04-.23-.02-.48,0-.72,.04-.79-.29-1.18-1.12-1.17-2.67,.02-5.35,.02-8.02,0-.94,0-1.14,.51-1.14,1.29,0,2.67-.02,5.34,.02,8.01,0,.71-.08,1.04-.94,1.02-2.19-.04-2.19,0-2.19-2.17,0-2.31-.03-4.62,0-6.93,.04-3.08,1.33-4.32,4.42-4.32,2.63,0,5.27,0,7.9,0,2.83,0,4.15,1.34,4.16,4.18,0,1.36,0,2.71,0,4.07Z"/><path class="cls-3" d="M147.69,83.18c0-1.91,.03-3.82-.01-5.74-.01-.67,.18-.88,.86-.87,3.91,.03,7.82,0,11.73,.02,2.48,.02,3.84,1.38,3.92,3.83,.09,2.88-1.1,4.41-3.71,4.52-2.31,.1-4.63,0-6.94,.03-.53,0-.64-.18-.67-.68-.13-2.44-.14-2.44,2.25-2.44,1.56,0,3.11-.02,4.67,0,.8,.01,1.32-.22,1.31-1.13,0-.86-.51-1.05-1.26-1.04-2.71,.02-5.43,.04-8.14-.01-.78-.01-.91,.25-.9,.95,.04,2.79,0,5.58,.03,8.36,0,.73-.11,1.03-.95,1.02-2.18-.04-2.18,0-2.18-2.17,0-1.55,0-3.11,0-4.66Z"/><path class="cls-3" d="M144.53,81.93c0,1.43,.03,2.87,0,4.3-.06,2.33-1.4,3.71-3.75,3.74-2.99,.05-5.99,.05-8.98,0-2.2-.04-3.52-1.14-3.64-3.31-.17-3.18-.09-6.37-.12-9.56,0-.45,.23-.49,.59-.53,2.53-.28,2.53-.28,2.53,2.28,0,2.23,.02,4.46,0,6.7-.01,.96,.36,1.36,1.35,1.34,2.51-.04,5.03-.05,7.54,0,1.04,.02,1.42-.33,1.41-1.38-.05-2.63,.02-5.26-.04-7.89-.02-.83,.18-1.08,1.04-1.06,2.08,.05,2.08,0,2.08,2.13,0,1.08,0,2.15,0,3.23Z"/><path d="M10.69,89.99c-1.88,0-3.75,.01-5.63,0-2.46-.02-3.82-1.1-3.94-3.51-.16-3.1-.07-6.21-.1-9.32,0-.4,.12-.6,.54-.57,.08,0,.16,0,.24,0q2.34-.1,2.34,2.21c0,2.23,.03,4.46-.01,6.69-.02,1.02,.38,1.41,1.42,1.4,3.67-.04,7.34,0,11.01-.04,.79,0,.99,.21,.98,.98-.03,2.15,0,2.15-2.18,2.15h-4.67Z"/><path class="cls-2" d="M70.23,89.97h-11c1.81-4.4,3.58-8.71,5.49-13.36,1.89,4.58,3.67,8.9,5.51,13.36Z"/><path class="cls-3" d="M125.59,80.41c-.04-2.4-1.4-3.76-3.81-3.81-1.48-.03-2.95,0-4.43,0-1.48,0-2.95-.03-4.43,0-2.24,.05-3.51,1.15-3.73,3.37-.21,2.22-.22,4.46,0,6.68,.22,2.18,1.45,3.29,3.63,3.33,3.03,.05,6.07,.06,9.1,0,2.28-.05,3.6-1.43,3.65-3.71,.04-1.95,.04-3.9,0-5.86Zm-4.32,6.48c-1.28-.04-2.56-.01-3.83-.01s-2.56-.04-3.83,.01c-.96,.04-1.41-.31-1.39-1.3,.03-1.55,.01-3.11,0-4.67,0-.82,.29-1.25,1.2-1.24,2.64,.03,5.27,.02,7.91,0,.79,0,1.19,.3,1.18,1.12-.02,1.63-.02,3.27,0,4.9,.01,.88-.38,1.2-1.24,1.17Z"/></g></g></svg>